Coordinates
version=1
nRows=24
nColumns=24
inDegrees=yes

Units are S.I. units (second, meters, Newtons, ...)
Angles are in degrees.

endheader
time	pelvis_tilt	pelvis_list	pelvis_rotation	pelvis_tx	pelvis_ty	pelvis_tz	hip_flexion_r	hip_adduction_r	hip_rotation_r	knee_angle_r	ankle_angle_r	subtalar_angle_r	mtp_angle_r	hip_flexion_l	hip_adduction_l	hip_rotation_l	knee_angle_l	ankle_angle_l	subtalar_angle_l	mtp_angle_l	lumbar_extension	lumbar_bending	lumbar_rotation
      1.10800000	      0.47802612	      5.16226248	     -2.24083272	      0.06739998	      1.05882987	      0.32811017	     20.55373809	     -4.28890359	      1.02990311	    -69.77401701	      0.15547097	    -15.07580795	      3.29694652	     11.95418586	      8.29149233	     -4.57550415	    -14.69177103	      5.31172663	      2.01882868	     -1.65426469	      0.73405146	     -2.20155655	      0.88985516
      1.11216667	      0.45940268	      5.13975725	     -2.27697379	      0.07252115	      1.05943706	      0.32809655	     21.13372271	     -4.17884745	      1.31264506	    -69.44342617	      0.69166333	    -15.22496759	      3.25359230	     11.61314650	      8.29650422	     -4.54980025	    -14.59879509	      5.51384552	      2.00147171	     -1.66452049	      0.73500702	     -2.17322179	      0.84930281
      1.11633333	      0.43342811	      5.10659501	     -2.31239133	      0.07765186	      1.06003624	      0.32806672	     21.69632695	     -4.05616675	      1.59155756	    -69.02100111	      1.15815938	    -15.33694596	      3.21341957	     11.27350097	      8.29282406	     -4.50388749	    -14.48921042	      5.69142899	      1.97567596	     -1.67507116	      0.73690241	     -2.11618415	      0.80855508
      1.12050000	      0.41859702	      5.04192125	     -2.31523571	      0.08270088	      1.06064208	      0.32811144	     22.21894807	     -3.89532163	      1.84685144	    -68.50179046	      1.44561885	    -15.40880811	      3.19222442	     10.92940792	      8.24894261	     -4.40835410	    -14.40198089	      5.79586047	      1.95319735	     -1.68075245	      0.68998989	     -2.09243088	      0.78181484
      1.12466667	      0.40485187	      5.02892844	     -2.36850442	      0.08794876	      1.06125238	      0.32802858	     22.72004755	     -3.79743872	      2.12358232	    -67.93453143	      2.04704513	    -15.55991155	      3.14558479	     10.55584123	      8.27908960	     -4.37539633	    -14.25515686	      6.04073462	      1.87106424	     -1.69427595	      0.72785664	     -2.00980047	      0.73135262
      1.12883333	      0.37212231	      4.96389699	     -2.36402467	      0.09301421	      1.06180579	      0.32807451	     23.21433793	     -3.63528796	      2.36597476	    -67.25884513	      2.26070352	    -15.61128016	      3.12869368	     10.22598195	      8.23680668	     -4.26453733	    -14.15333923	      6.12051821	      1.84538466	     -1.69926636	      0.65717061	     -1.99565704	      0.70844680
      1.13300000	      0.36340170	      4.92666841	     -2.39816629	      0.09821995	      1.06239083	      0.32799159	     23.66161606	     -3.51488281	      2.61265742	    -66.54285411	      2.85785513	    -15.75993633	      3.05717514	      9.84812175	      8.24538255	     -4.19013191	    -14.01036864	      6.39212227	      1.69113699	     -1.72355083	      0.68557720	     -1.90586760	      0.64822589
      1.13716667	      0.32448755	      4.88310267	     -2.41392191	      0.10332492	      1.06288909	      0.32801712	     24.12185193	     -3.37453651	      2.86764572	    -65.73180226	      3.02962193	    -15.81965923	      3.03905645	      9.51187419	      8.23268714	     -4.05367236	    -13.87633743	      6.45981758	      1.66558765	     -1.72928296	      0.63348920	     -1.88626905	      0.62449966
      1.14133333	      0.33764176	      4.84924826	     -2.46012223	      0.10859616	      1.06348047	      0.32794788	     24.49100211	     -3.25564692	      3.11680966	    -64.85439598	      3.40271085	    -16.01502101	      2.99225478	      9.08785859	      8.24950807	     -3.92551878	    -13.68957572	      6.66079571	      1.52228735	     -1.74515030	      0.71535125	     -1.76804381	      0.57393140
      1.14550000	      0.32635871	      4.80147627	     -2.48000349	      0.11378341	      1.06399273	      0.32793635	     24.86401733	     -3.11943688	      3.34300669	    -63.90387531	      3.66802217	    -16.20007770	      2.94657637	      8.70363721	      8.24386788	     -3.77329471	    -13.52469542	      6.81670179	      1.38409813	     -1.76133690	      0.70795246	     -1.70857544	      0.53116859
      1.14966667	      0.33614813	      4.74974891	     -2.45358950	      0.11891130	      1.06450623	      0.32786512	     25.18585970	     -3.00075062	      3.50758360	    -62.88859388	      3.89763908	    -16.54425099	      2.83060851	      8.30636249	      8.24310440	     -3.57532841	    -13.38544166	      6.99844372	      1.09899487	     -1.80651257	      0.60254675	     -1.63192837	      0.44669688
      1.15383333	      0.27374658	      4.72790328	     -2.47284256	      0.12406038	      1.06485804	      0.32798077	     25.57589289	     -2.87690015	      3.74915930	    -61.81921356	      4.00738686	    -16.63510319	      2.80981614	      7.98463919	      8.25147453	     -3.42944772	    -13.23081613	      7.04956999	      1.06188234	     -1.81366627	      0.55965051	     -1.65366472	      0.42976950
      1.15800000	      0.30976758	      4.69025826	     -2.51506499	      0.12941673	      1.06539580	      0.32792963	     25.80784243	     -2.76400695	      3.94684897	    -60.65521498	      4.16371141	    -16.96802208	      2.75444648	      7.51383839	      8.27231582	     -3.24673873	    -13.00415847	      7.22054848	      0.86412931	     -1.83338147	      0.70275083	     -1.55682320	      0.38428849
      1.16216667	      0.31396143	      4.64783441	     -2.51086980	      0.13468018	      1.06583568	      0.32791726	     26.05173409	     -2.65444216	      4.09451380	    -59.43230288	      4.22251048	    -17.44471559	      2.67243009	      7.09205424	      8.28175561	     -3.01237802	    -12.80965842	      7.38585272	      0.57923976	     -1.86423213	      0.70139418	     -1.47949867	      0.32195004
      1.16633333	      0.35057272	      4.59487006	     -2.44208611	      0.13978864	      1.06628596	      0.32782731	     26.23593718	     -2.56503682	      4.15790050	    -58.13643896	      4.02821679	    -18.21115897	      2.50015185	      6.65722110	      8.28860350	     -2.71582212	    -12.65008229	      7.47446685	      0.14151975	     -1.93398133	      0.47763887	     -1.37299797	      0.19005710
      1.17050000	      0.38405457	      4.56525987	     -2.44911189	      0.14503825	      1.06670109	      0.32785967	     26.40082613	     -2.47278761	      4.28761599	    -56.78687634	      3.90627110	    -18.74806356	      2.31261718	      6.20194429	      8.31118910	     -2.49623392	    -12.43868367	      7.53235273	     -0.12862716	     -2.01087576	      0.42844540	     -1.34598499	      0.08412274
      1.17466667	      0.34818662	      4.56498250	     -2.48281177	      0.15032136	      1.06695040	      0.32797970	     26.62667414	     -2.39389717	      4.45472004	    -55.41097012	      3.95163051	    -18.97264712	      2.25275754	      5.82115415	      8.35535271	     -2.32208749	    -12.22689526	      7.61831225	     -0.22920394	     -2.03355973	      0.52900059	     -1.41020400	      0.07217448
      1.17883333	      0.32961067	      4.53432540	     -2.48454488	      0.15569810	      1.06723946	      0.32802692	     26.78391232	     -2.30883896	      4.54242369	    -53.94783069	      3.88234511	    -19.45157929	      2.16325353	      5.40878911	      8.37504770	     -2.10524610	    -12.00958188	      7.76322296	     -0.48411763	     -2.06763237	      0.61533771	     -1.35982922	      0.03023144
      1.18300000	      0.33292203	      4.49638364	     -2.40806253	      0.16086849	      1.06751297	      0.32796593	     26.89791235	     -2.25638994	      4.52288378	    -52.41205489	      3.44994825	    -20.42013114	      1.95732767	      4.99599218	      8.39567838	     -1.75119501	    -11.82859849	      7.84024072	     -0.95871831	     -2.15140528	      0.42495407	     -1.22580558	     -0.10008158
      1.18716667	      0.30210807	      4.49705825	     -2.44174639	      0.16622468	      1.06768903	      0.32814109	     27.02985028	     -2.19355566	      4.61433122	    -50.86218313	      3.42972277	    -20.66445172	      1.88643704	      4.60359149	      8.43782190	     -1.61296788	    -11.60922323	      7.89863250	     -1.08023569	     -2.17988489	      0.54846316	     -1.33553262	     -0.11363858
      1.19133333	      0.32229367	      4.45751286	     -2.35912663	      0.17145879	      1.06794790	      0.32811046	     27.06145614	     -2.15491782	      4.53587399	    -49.20462019	      2.93449787	    -21.61247403	      1.61260944	      4.16266995	      8.45351216	     -1.25453299	    -11.41321414	      7.93897178	     -1.54718243	     -2.29520690	      0.40033116	     -1.27308549	     -0.26658530
      1.19550000	      0.25546997	      4.46557443	     -2.41039674	      0.17686820	      1.06799601	      0.32832428	     27.18343511	     -2.10157203	      4.59469233	    -47.56299635	      2.92588399	    -21.79845376	      1.54497273	      3.80543727	      8.49919414	     -1.14142346	    -11.19120027	      8.03793351	     -1.67194369	     -2.32238613	      0.55634367	     -1.31292847	     -0.28096419
      1.19966667	      0.23062870	      4.41673877	     -2.32816250	      0.18223946	      1.06815231	      0.32827815	     27.19669294	     -2.06739709	      4.46660717	    -45.80265278	      2.47617990	    -22.52617902	      1.34128285	      3.39999055	      8.50209895	     -0.77144545	    -10.99303858	      8.16744199	     -2.07979971	     -2.40780908	      0.50422083	     -1.10891812	     -0.40535276
      1.20383333	      0.16679291	      4.43200425	     -2.35054769	      0.18759083	      1.06813618	      0.32853877	     27.26595420	     -2.03997840	      4.43959348	    -44.07174908	      2.42845433	    -22.69400726	      1.27281037	      3.05622438	      8.54691980	     -0.67947147	    -10.80164785	      8.22174176	     -2.21234906	     -2.43738454	      0.65081094	     -1.29393581	     -0.40133963
